<svg width="12" height="12" viewBox="0 0 12 12" fill="none" xmlns="http://www.w3.org/2000/svg">
<g clip-path="url(#clip0)">
<path d="M10.5 5C10.5 8.5 6 11.5 6 11.5C6 11.5 1.5 8.5 1.5 5C1.5 3.80653 1.97411 2.66193 2.81802 1.81802C3.66193 0.974106 4.80653 0.5 6 0.5C7.19347 0.5 8.33807 0.974106 9.18198 1.81802C10.0259 2.66193 10.5 3.80653 10.5 5Z" stroke="#666666" stroke-width="1.5" stroke-linecap="round" stroke-linejoin="round"/>
<path d="M6 5.5C6.82843 5.5 7.5 4.82843 7.5 4C7.5 3.17157 6.82843 2.5 6 2.5C5.17157 2.5 4.5 3.17157 4.5 4C4.5 4.82843 5.17157 5.5 6 5.5Z" stroke="#666666" stroke-width="1.5" stroke-linecap="round" stroke-linejoin="round"/>
</g>
<defs>
<clipPath id="clip0">
<rect width="12" height="12" fill="white"/>
</clipPath>
</defs>
</svg>
