<svg width="13" height="13" viewBox="0 0 13 13" fill="none" xmlns="http://www.w3.org/2000/svg">
<path d="M11.9168 9.16497V10.79C11.9174 10.9408 11.8865 11.0901 11.826 11.2284C11.7656 11.3666 11.677 11.4907 11.5658 11.5926C11.4547 11.6946 11.3234 11.7723 11.1805 11.8206C11.0376 11.8689 10.8862 11.8869 10.7359 11.8733C9.06914 11.6922 7.46806 11.1226 6.06136 10.2104C4.7526 9.37875 3.643 8.26915 2.81136 6.96039C1.89593 5.54729 1.32624 3.93843 1.14844 2.26414C1.1349 2.11435 1.15271 1.96338 1.20071 1.82085C1.24872 1.67832 1.32587 1.54734 1.42727 1.43627C1.52867 1.32519 1.65208 1.23644 1.78966 1.17567C1.92724 1.1149 2.07596 1.08345 2.22636 1.0833H3.85136C4.11423 1.08072 4.36908 1.17381 4.56839 1.34522C4.76771 1.51663 4.8979 1.75467 4.93469 2.01497C5.00328 2.53501 5.13048 3.04561 5.31386 3.53705C5.38673 3.73093 5.40251 3.94163 5.35931 4.1442C5.3161 4.34676 5.21574 4.5327 5.07011 4.67997L4.38219 5.36789C5.15328 6.72398 6.2761 7.8468 7.63219 8.61789L8.32011 7.92997C8.46738 7.78434 8.65331 7.68397 8.85588 7.64077C9.05844 7.59757 9.26915 7.61334 9.46302 7.68622C9.95446 7.8696 10.4651 7.9968 10.9851 8.06539C11.2482 8.10251 11.4885 8.23504 11.6603 8.43778C11.8321 8.64052 11.9234 8.89932 11.9168 9.16497Z" stroke="#666666" stroke-width="1.5" stroke-linecap="round" stroke-linejoin="round"/>
</svg>
